<svg xmlns="http://www.w3.org/2000/svg" width="119.295" height="176.641" viewBox="0 0 119.295 176.641">
  <path d="M158.968,120.577l-53.76-10.5Q94.2,108.035,94.2,95.488V78.081q0-14.336,14.592-14.336H182.52V50.433L169.464,40.192H108.536q-40.194,0-40.192,40.449V94.465q0,33.023,28.928,38.656l53.5,11.008q11.005,2.052,11.009,14.592v20.223q0,14.342-14.593,14.337H68.344v13.312L81.4,216.833h66.048q40.188,0,40.192-40.448v-16.9Q187.64,126.724,158.968,120.577Zm-41.685,1.3a5.887,5.887,0,0,1-2.555,2.866,6.75,6.75,0,0,1,.692.114.839.839,0,0,1,.63.427,1.978,1.978,0,0,1,.384.646,1.923,1.923,0,0,1,.123.941,5.681,5.681,0,0,1-.753,2.3,5.831,5.831,0,0,1-1.86,2.125,3.047,3.047,0,0,1-2.1.51,3.3,3.3,0,0,1-1.751-.952,1.388,1.388,0,0,1-.22-.756,6.044,6.044,0,0,1,.036-.6,1.458,1.458,0,0,1,.185-.534,3.444,3.444,0,0,1,.568-.93l.374-.457c.293.383.381.665.248.823s-.222.3-.3.37a.641.641,0,0,0-.018.405.563.563,0,0,0,.207.406,1.3,1.3,0,0,0,1.305.519,3.958,3.958,0,0,0,2.322-2.3,1.219,1.219,0,0,0,.247-.644.83.83,0,0,0-.014-.451,4.048,4.048,0,0,0-.437-.269,2.756,2.756,0,0,0-1.185-.19c-.165.111-.3.065-.441-.146-.149.032-.228-.085-.273-.379l-.068-.279q-.043-.558.28-.5l.927-.574a7.039,7.039,0,0,0,1.143-1.062,3.387,3.387,0,0,0,.607-.921,1.345,1.345,0,0,0,.291-.759,1.487,1.487,0,0,0,.157-.7.486.486,0,0,0-.269-.4c-.644-.145-1.442.291-2.328,1.28-.367.316-.487.619-.332.975-.13.667-.478.783-1.041.327l.136-.075,0-.02a.69.69,0,0,1-.286-.728,3.279,3.279,0,0,1,.516-1.713,5.126,5.126,0,0,1,1.615-1.7,2.878,2.878,0,0,1,1.79-.508,2.051,2.051,0,0,1,1.338.668c.153.05.264.214.312.489a3.723,3.723,0,0,1,.105,1.141A3.344,3.344,0,0,1,117.283,121.881Zm19.623,3.651a7.712,7.712,0,0,1-1.357,2.793l-3.74,4.877a5.712,5.712,0,0,0,1.937-.215.789.789,0,0,1,.671.111,1.525,1.525,0,0,1,.631.632,2.208,2.208,0,0,1,.351,1.026,5.6,5.6,0,0,0-.03.992.886.886,0,0,1-.061.314,1.12,1.12,0,0,1-.278.17,1.661,1.661,0,0,1-.6-.177,2.732,2.732,0,0,1-.477-.378,1.078,1.078,0,0,0-.5-.464,2.907,2.907,0,0,0-1.966-.056l-1.341.29a2.04,2.04,0,0,1-.7.027.6.6,0,0,1-.467-.539,1.952,1.952,0,0,1,.165-.742,9.518,9.518,0,0,1,1.111-1.312L134.624,127a6.666,6.666,0,0,0,.74-1.507,1.657,1.657,0,0,0,.114-.895c-.029-.27-.1-.446-.192-.485a.773.773,0,0,0-.7-.362,1.681,1.681,0,0,0-.89.378,1.14,1.14,0,0,0-.3.308l-.361.806a1.812,1.812,0,0,0-.166.538,1.706,1.706,0,0,0,.036.761l-.274.253a.707.707,0,0,1-.857-.514,2.032,2.032,0,0,1-.142-.638l.021-.526a2.338,2.338,0,0,1,.226-.954.8.8,0,0,1,.1-.185l.26-.5a4.773,4.773,0,0,1,1.4-1.318,5.875,5.875,0,0,1,1.41-.337,1.338,1.338,0,0,1,1.123.2c.134.148.335.371.608.647.052.255.086.609.146,1.028A7.544,7.544,0,0,1,136.906,125.532Zm4.7,9.988a17.418,17.418,0,0,1,2.846-2.367c.258-.175.438-.16.553.087a.239.239,0,0,1,.112.266.4.4,0,0,1-.175.271,10.783,10.783,0,0,0-1.884,2.67.619.619,0,0,0-.026.343c.016.023.032.047.055.03a7.338,7.338,0,0,0,2.015-1.768c.034-.177.147-.237.364-.195s.318.144.292.282a.7.7,0,0,1,.021.309.539.539,0,0,1-.226.425,4.646,4.646,0,0,1-2.364,1.68.988.988,0,0,1-.816,0,.869.869,0,0,1-.371-.3.687.687,0,0,1-.113-.572c.025-.128.042-.212.054-.265a1.814,1.814,0,0,1-1.577.661.974.974,0,0,1-1-.724,2.861,2.861,0,0,1,.2-1.775,6.942,6.942,0,0,1,2.82-3.18,3.548,3.548,0,0,1,3.4-.215c.485.339.443.554-.142.624a14.449,14.449,0,0,0-1.513.236,6.654,6.654,0,0,0-2.764,3.111A.447.447,0,0,0,141.6,135.52Z" transform="translate(-68.344 -40.192)"/>
  <path d="M121.694,130.522c-.151-.375-.262-.642-.318-.775a4.1,4.1,0,0,0-.2-.771c-.012-.043-.067-.075-.17-.074-.035-.028-.055-.032-.078-.015a.964.964,0,0,1-.566.5c-.168.233-.345.2-.535-.083a.726.726,0,0,1,.014-.487,3.591,3.591,0,0,0,.588-.721,1.265,1.265,0,0,1,1.576-.346,2.368,2.368,0,0,1,.7.992,2.683,2.683,0,0,1,.484.971,13.616,13.616,0,0,0,2.073-2.593c.136-.279.288-.433.469-.418.09-.044.208-.021.393.076.13.169.19.282.171.38a.81.81,0,0,1-.15.664,35.809,35.809,0,0,1-2.628,3.137c.2.426.449.943.723,1.526a.45.45,0,0,0,.276.257c.118.023.376-.15.833-.51.329-.222,1.071-.688,2.268-1.394a30.333,30.333,0,0,1-2.2,2.731,1.465,1.465,0,0,1-.639.345,1.378,1.378,0,0,1-.957,0,4.373,4.373,0,0,1-.954-.858,2.018,2.018,0,0,1-.458-.578l-.115-.246a6.436,6.436,0,0,1-1.91,1.014,1.975,1.975,0,0,1-.811-.015,1.935,1.935,0,0,1-.3-.14.413.413,0,0,1-.187-.5,2.218,2.218,0,0,1,.895-1.456c.429-.324.618-.349.56-.054a1.78,1.78,0,0,1-.169.558.869.869,0,0,0-.088.452c0-.02,0-.02.024-.017.051.051.086.079.086.079.939-.429,1.444-.718,1.525-.926A5.269,5.269,0,0,0,121.694,130.522Z" transform="translate(-68.344 -40.192)" fill="red"/>
</svg>
