<svg xmlns="http://www.w3.org/2000/svg" width="231.988" height="76.373" viewBox="0 0 231.988 76.373">
  <path d="M12.006,85.391V78.24h31.9q4.728,0,4.73-4.73V61.959q0-4.727-4.73-4.73H20.146V45.02h23.76q4.728,0,4.73-4.84V31.49q0-4.729-4.73-4.73h-30.8V19.61l6.49-5.06h24.64q17.928,0,17.93,17.929V39.85A9.676,9.676,0,0,1,59.416,47l-3.85,3.85,3.85,3.85a9.679,9.679,0,0,1,2.75,7.15V72.521q0,17.93-17.93,17.929H18.5Z" transform="translate(-12.006 -14.078)" fill="#2358a8"/>
  <path d="M71.515,88.25l19.36-27.06L72.065,34.9l1.1-2.2h11.88l13.09,18.92,13.2-18.92h11.881l1.1,2.2-18.81,26.29,19.36,27.06-.99,2.2h-11.99L98.135,70.76,84.385,90.45H72.505Z" transform="translate(-12.006 -14.078)" fill="#1c489b"/>
  <path d="M134.215,90.45V66.36q0-14.629,12.87-17.27l21.12-4.29q3.738-.768,3.739-4.95V31.49q0-4.729-4.729-4.73h-30.8V19.61l6.489-5.06h24.641q17.928,0,17.93,17.929V39.52q0,14.63-12.871,17.27l-21.12,4.29q-3.739.771-3.739,4.95V78.24h37.73V90.45Z" transform="translate(-12.006 -14.078)" fill="#2358a8"/>
  <path d="M214.184,90.45q-17.382,0-17.38-17.16t17.38-17.16h16.94V48.979q0-5.058-5.061-5.059H202.744V36.99l5.72-4.29h18.26q17.268,0,17.27,17.38V90.45Zm-4.51-16.28q0,5.061,5.059,5.06h16.391V66.141H214.733q-5.059,0-5.059,4.949Z" transform="translate(-12.006 -14.078)" fill="#1c489b"/>
  <g>
    <path d="M80.247,23.958q-.172-.584-.359-1.155t-.36-1.169H75.905c-.116.4-.234.791-.353,1.177s-.239.768-.354,1.147H73.576q.482-1.581.915-2.922t.847-2.538q.414-1.2.822-2.282T77,14.078H78.49q.433,1.055.842,2.138t.822,2.282q.417,1.2.855,2.538t.922,2.922Zm-2.53-7.97q-.287.756-.651,1.84t-.76,2.352h2.821q-.4-1.269-.767-2.367T77.717,15.988Z" transform="translate(-12.006 -14.078)" fill="#2c2f75"/>
    <path d="M84.379,23.958q-.621-1.467-1.275-3.372T81.918,16.5h1.6q.135.627.316,1.348t.385,1.44q.206.72.423,1.4t.4,1.219q.186-.541.4-1.219t.416-1.4q.206-.72.392-1.44t.323-1.348H88.12q-.534,2.182-1.187,4.085t-1.274,3.372Z" transform="translate(-12.006 -14.078)" fill="#2c2f75"/>
    <path d="M91.374,16.316a3.214,3.214,0,0,1,1.25.214,2,2,0,0,1,.811.6,2.382,2.382,0,0,1,.433.935,5.259,5.259,0,0,1,.13,1.2v4.521c-.231.056-.58.126-1.046.207a9.385,9.385,0,0,1-1.578.121,4.115,4.115,0,0,1-1.064-.129,2.106,2.106,0,0,1-.824-.413,1.94,1.94,0,0,1-.532-.741,2.916,2.916,0,0,1-.191-1.127,2.455,2.455,0,0,1,.216-1.084,1.954,1.954,0,0,1,.588-.72,2.361,2.361,0,0,1,.861-.4,4.259,4.259,0,0,1,1.02-.121,3.979,3.979,0,0,1,.52.036,4.186,4.186,0,0,1,.582.122v-.286a2.567,2.567,0,0,0-.062-.57,1.255,1.255,0,0,0-.217-.477,1.022,1.022,0,0,0-.408-.322,1.561,1.561,0,0,0-.637-.114,4.867,4.867,0,0,0-.954.086,3.8,3.8,0,0,0-.705.2l-.185-1.4a5.346,5.346,0,0,1,.829-.228A5.657,5.657,0,0,1,91.374,16.316Zm.124,6.431a4.849,4.849,0,0,0,1.052-.086V20.75a2.592,2.592,0,0,0-.36-.085,2.859,2.859,0,0,0-.519-.043,2.957,2.957,0,0,0-.5.043,1.4,1.4,0,0,0-.458.157.875.875,0,0,0-.328.32,1.01,1.01,0,0,0-.124.521.965.965,0,0,0,.335.848A1.538,1.538,0,0,0,91.5,22.747Z" transform="translate(-12.006 -14.078)" fill="#2c2f75"/>
    <path d="M95.829,16.744a8.813,8.813,0,0,1,1.126-.271,8.416,8.416,0,0,1,1.535-.129,3.118,3.118,0,0,1,1.324.25,2.114,2.114,0,0,1,.848.7,2.867,2.867,0,0,1,.445,1.084,6.914,6.914,0,0,1,.13,1.39v4.192h-1.5v-3.92a6.549,6.549,0,0,0-.068-1.02,2,2,0,0,0-.223-.685.924.924,0,0,0-.421-.384,1.557,1.557,0,0,0-.649-.121,4.258,4.258,0,0,0-.595.042c-.206.029-.358.052-.458.071v6.017h-1.5Z" transform="translate(-12.006 -14.078)" fill="#2c2f75"/>
    <path d="M102.116,25.156h6.189V26.6h-6.189Z" transform="translate(-12.006 -14.078)" fill="#2c2f75"/>
    <path d="M113.936,14.078v6.1h.965v1.411h-.965v2.367h-1.46V21.591h-3.763V20.366q.248-.629.662-1.441t.922-1.668q.508-.855,1.077-1.682a18.367,18.367,0,0,1,1.139-1.5Zm-1.46,2.124q-.3.414-.613.883c-.211.315-.415.642-.613.985s-.388.691-.569,1.048-.347.711-.495,1.062h2.29Z" transform="translate(-12.006 -14.078)" fill="#2c2f75"/>
    <path d="M116.448,16.13a8.915,8.915,0,0,0,1.442-.84,6.317,6.317,0,0,0,1.281-1.212h1.052v9.88h-1.5V16.387a4.831,4.831,0,0,1-.842.585,7.918,7.918,0,0,1-.978.47Z" transform="translate(-12.006 -14.078)" fill="#2c2f75"/>
  </g>
</svg>
