<svg xmlns="http://www.w3.org/2000/svg" width="256" height="105" viewBox="0 0 256 105">
  <rect width="256" height="105" fill="none"/>
  <g>
    <g>
      <path d="M80.283,23.958l-1.1-3.237H75.642l-1.088,3.237H73.515l3.493-10.22h.864l3.475,10.22Zm-1.42-4.3L77.836,16.5q-.2-.6-.411-1.469a14.885,14.885,0,0,1-.381,1.469l-1.039,3.154Z" fill="#2c2f75"/>
      <path d="M83.86,23.958l-2.513-7.63h1.076l1.426,4.525q.483,1.588.568,2.062h.048q.066-.37.42-1.529t1.587-5.058h1.075l-2.514,7.63Z" fill="#2c2f75"/>
      <path d="M92.684,23.958l-.2-1.085h-.048a2.929,2.929,0,0,1-.989.97,2.655,2.655,0,0,1-1.229.255,2.036,2.036,0,0,1-1.544-.585,2.311,2.311,0,0,1-.559-1.664q0-2.311,3.209-2.423l1.124-.042v-.473a2.142,2.142,0,0,0-.336-1.327,1.278,1.278,0,0,0-1.072-.427,3.919,3.919,0,0,0-1.874.585l-.308-.885a4.419,4.419,0,0,1,1.073-.481A4.064,4.064,0,0,1,91.1,16.2a2.306,2.306,0,0,1,1.754.605,2.767,2.767,0,0,1,.572,1.942v5.208Zm-2.267-.814a1.883,1.883,0,0,0,1.472-.592,2.386,2.386,0,0,0,.535-1.657v-.689l-1,.048a3.275,3.275,0,0,0-1.726.429,1.356,1.356,0,0,0-.529,1.18,1.287,1.287,0,0,0,.33.954A1.25,1.25,0,0,0,90.417,23.144Z" fill="#2c2f75"/>
      <path d="M100.025,23.958V19.022a2.209,2.209,0,0,0-.368-1.393A1.4,1.4,0,0,0,98.5,17.17a1.778,1.778,0,0,0-1.524.648,3.646,3.646,0,0,0-.483,2.138v4h-1v-7.63h.817l.163,1.045h.048a2.176,2.176,0,0,1,.864-.874,2.5,2.5,0,0,1,1.239-.31,2.316,2.316,0,0,1,1.8.665,3.108,3.108,0,0,1,.6,2.127v4.977Z" fill="#2c2f75"/>
      <path d="M107.6,26.152H102V25.24h5.6Z" fill="#2c2f75"/>
      <path d="M114.4,21.62h-1.311v2.338h-.961V21.62h-4.3V20.61l4.194-6.886h1.064v6.844H114.4Zm-2.272-1.052V17.184q0-.994.06-2.249h-.048a10.853,10.853,0,0,1-.544,1.107l-2.762,4.526Z" fill="#2c2f75"/>
      <path d="M118.972,23.958h-.98V16.7q0-.9.049-1.712c-.085.1-.18.2-.284.3s-.584.56-1.439,1.358l-.532-.793,2.339-2.082h.847Z" fill="#2c2f75"/>
    </g>
    <path d="M13.173,86.6v-4.51h31.68q7.479,0,7.48-7.481V62.29q0-7.477-7.48-7.479H21.313V46.45h23.54q7.479,0,7.48-7.48V30.39q0-7.479-7.48-7.48H14.273V18.4l4.95-3.85h25.52q16.83,0,16.83,16.83v8.03a9.674,9.674,0,0,1-2.75,7.15l-3.85,3.85,3.85,3.851a9.68,9.68,0,0,1,2.75,7.149V73.62q0,16.831-16.83,16.83H18.123Z" fill="#fff"/>
    <path d="M71.912,88.8,92.151,61.3,72.682,34.9l.77-1.65h8.141L97.212,54.921,112.831,33.25h8.141l.769,1.65L102.382,61.3l20.131,27.5-.772,1.649H113.6L97.212,67.681,80.821,90.45H72.682Z" fill="#2d3079"/>
    <path d="M132.851,90.45v-23.1q0-13.861,12.1-16.281L167.5,46.56q5.609-1.1,5.609-7.37v-8.8q0-7.479-7.479-7.48h-30.58V18.4L140,14.55h25.52q16.829,0,16.83,16.83v7.15q0,13.86-12.1,16.281L147.7,59.32q-5.608,1.1-5.609,7.37v15.4h40.26V90.45Z" fill="#fff"/>
    <path d="M211.72,90.45q-16.611,0-16.611-16.609T211.72,57.23h20.13V48.65q0-7.7-7.7-7.7h-23.54v-4.4l4.4-3.3h19.139q16.5,0,16.5,16.5v40.7Zm-7.811-15.4q0,7.7,7.7,7.7H231.85V64.381H211.609q-7.7,0-7.7,7.7Z" fill="#12497f"/>
  </g>
</svg>
