<svg xmlns="http://www.w3.org/2000/svg" width="231.988" height="76.331" viewBox="0 0 231.988 76.331">
  <path d="M12.006,85.391V78.24h31.9q4.728,0,4.73-4.73V61.959q0-4.727-4.73-4.73H20.146V45.02h23.76q4.728,0,4.73-4.84V31.49q0-4.729-4.73-4.73h-30.8V19.61l6.49-5.06h24.64q17.928,0,17.93,17.929V39.85A9.676,9.676,0,0,1,59.416,47l-3.85,3.85,3.85,3.85a9.679,9.679,0,0,1,2.75,7.15V72.521q0,17.93-17.93,17.929H18.5Z" transform="translate(-12.006 -14.12)" fill="#fff"/>
  <path d="M71.515,88.25l19.36-27.06L72.065,34.9l1.1-2.2h11.88l13.09,18.92,13.2-18.92h11.881l1.1,2.2-18.81,26.29,19.36,27.06-.99,2.2h-11.99L98.135,70.76,84.385,90.45H72.505Z" transform="translate(-12.006 -14.12)" fill="#2d3079"/>
  <path d="M134.215,90.45V66.36q0-14.629,12.87-17.27l21.12-4.29q3.738-.768,3.739-4.95V31.49q0-4.729-4.729-4.73h-30.8V19.61l6.489-5.06h24.641q17.928,0,17.93,17.929V39.52q0,14.63-12.871,17.27l-21.12,4.29q-3.739.771-3.739,4.95V78.24h37.73V90.45Z" transform="translate(-12.006 -14.12)" fill="#fff"/>
  <path d="M214.184,90.45q-17.382,0-17.38-17.16t17.38-17.16h16.94V48.979q0-5.058-5.061-5.059H202.744V36.99l5.72-4.29h18.26q17.268,0,17.27,17.38V90.45Zm-4.51-16.28q0,5.061,5.059,5.06h16.391V66.141H214.733q-5.059,0-5.059,4.949Z" transform="translate(-12.006 -14.12)" fill="#2d3079"/>
  <g>
    <path d="M73.75,23.617l2.636-9.5h2.351l2.624,9.5-.185.341H79.9l-.581-2.166H75.792L75.2,23.958h-1.25Zm2.463-3.409h2.7l-1.238-4.5h-.235Z" transform="translate(-12.006 -14.12)" fill="#2c2f75"/>
    <path d="M81.584,16.729l.148-.256h1.25L84.616,22.5H84.8l1.634-6.031h1.25l.148.256L85.8,23.958H83.626Z" transform="translate(-12.006 -14.12)" fill="#2c2f75"/>
    <path d="M90.482,23.958q-1.954,0-1.955-2.224t1.955-2.224h1.907v-.927c0-.437-.191-.656-.57-.656H89.2v-.9l.644-.556h2.055q1.941,0,1.943,2.253v5.232Zm-.507-2.11q0,.657.569.656h1.845v-1.7H90.544q-.568,0-.569.642Z" transform="translate(-12.006 -14.12)" fill="#2c2f75"/>
    <path d="M95.645,23.958V16.473h3.563q1.944,0,1.943,2.253v5.232H99.7V18.583q0-.655-.569-.656H97.092v6.031Z" transform="translate(-12.006 -14.12)" fill="#2c2f75"/>
    <path d="M102.525,25.37h6.189v1.44h-6.189Z" transform="translate(-12.006 -14.12)" fill="#2c2f75"/>
    <path d="M109.9,22.375V20.936l2.7-6.816h1.287l.173.371-2.488,6.288h2.574V17.828h1.523v6.13h-1.523V22.375Z" transform="translate(-12.006 -14.12)" fill="#2c2f75"/>
    <path d="M117.4,23.958V22.375h1.98V15.7H117.76v-.927l.73-.656h2.4v8.255h1.782v1.583Z" transform="translate(-12.006 -14.12)" fill="#2c2f75"/>
  </g>
</svg>
